<?xml version="1.0" encoding="utf-8"?>
<!-- Svg Vector Icons : http://www.onlinewebfonts.com/icon -->
<!DOCTYPE svg PUBLIC "-//W3C//DTD SVG 1.1//EN" "http://www.w3.org/Graphics/SVG/1.1/DTD/svg11.dtd">
<svg version="1.1" xmlns="http://www.w3.org/2000/svg" xmlns:xlink="http://www.w3.org/1999/xlink" x="0px" y="0px" viewBox="0 0 1000 1000" enable-background="new 0 0 1000 1000" xml:space="preserve">
<metadata> Svg Vector Icons : http://www.onlinewebfonts.com/icon </metadata>
<g><g transform="translate(0.000000,511.000000) scale(0.100000,-0.100000)"><path d="M8691.5,4957.4c-91.2-27.8-245.8-115-341-194.3l-174.4-138.8l-269.6,55.5c-487.7,103.1-999.1,47.6-1395.6-154.6l-198.2-103.1l-186.3,103.1c-154.6,87.2-218.1,103.1-432.2,87.2c-463.8-27.7-781-344.9-808.8-804.8l-15.9-249.8l-142.7-27.8c-372.7-71.4-448-134.8-2454.2-2137C52.4-823.1,104-759.7,100-1346.4c0-559,51.5-630.4,1455-2029.9c1367.8-1363.8,1439.2-1415.4,1954.6-1415.4c337,0,543.2,55.5,777.1,210.1c95.1,67.4,1022.9,971.3,2061.6,2014C8287.1-620.9,8358.4-537.6,8425.8-168.9l27.8,138.8l253.7,23.8c467.9,35.7,773.1,341,800.9,796.9c11.9,198.2-3.9,277.5-87.2,436.1c-91.2,182.4-95.1,202.2-35.7,313.2c222,432.2,297.3,979.3,194.2,1447.1l-59.5,293.4l150.7,202.2c257.7,344.9,297.3,674,122.9,1018.9c-103.1,206.2-364.8,420.3-574.9,471.8C9000.7,5028.8,8905.5,5024.8,8691.5,4957.4z M9198.9,4303.2c51.5-51.5,79.3-130.8,79.3-222c0-115-35.7-178.4-218.1-368.7c-245.8-257.7-257.7-313.2-134.8-634.4c47.6-130.8,83.3-317.2,83.3-475.8c3.9-253.7-67.4-662.1-122.9-693.8c-15.8-11.9-499.5,452-1074.4,1026.9L6764.6,3982.1l118.9,43.6c325.1,126.9,816.7,118.9,1145.8-15.9c241.8-103.1,317.2-83.3,574.9,154.6c194.3,178.4,261.7,218.1,376.6,218.1C9068.1,4382.5,9151.4,4350.8,9198.9,4303.2z M7383.1,2487.4c1126-1122,1538.3-1558.1,1538.3-1625.5c0-51.6-43.6-134.8-99.1-186.3c-51.5-55.5-134.8-99.1-186.3-99.1c-122.9,0-3163.8,3033-3163.8,3155.9c0,47.6,35.7,130.8,83.2,190.3C5729.8,4144.6,5725.9,4148.6,7383.1,2487.4z M5424.6,2820.4c87.2-59.5,650.2-602.6,1248.9-1209.2c888.1-896,1098.2-1129.9,1133.9-1256.8c59.5-222,51.5-368.7-31.8-551.1c-91.2-194.2-3774.4-3881.4-3940.9-3940.9c-142.7-55.5-428.2-55.5-570.9-4C3117.1-4086,841.4-1818.2,770-1655.7c-67.4,150.6-71.4,436.1-11.9,594.7C817.6-898.4,4500.8,2784.8,4699,2879.9C4921.1,2987,5218.4,2963.2,5424.6,2820.4z"/><path d="M4560.3,2269.4c-122.9-63.4-210.1-237.9-178.4-348.9c15.9-47.6,146.7-198.2,293.4-337c297.3-285.4,440.1-325.1,590.7-162.6c158.6,166.5,118.9,297.4-178.4,590.8C4790.2,2301.1,4707,2340.7,4560.3,2269.4z"/><path d="M3692,1424.9c-154.6-198.2-99.1-305.3,440.1-832.6c555.1-547.1,626.4-578.8,832.6-372.7c178.4,182.4,138.8,265.6-416.3,824.6c-444,444.1-495.6,483.7-630.4,483.7C3807,1528,3751.5,1504.2,3692,1424.9z"/><path d="M2938.7,671.6c-47.6-59.5-83.3-130.8-83.3-162.6c0-107,115-273.6,329.1-479.7c257.7-241.8,424.2-273.6,574.9-115c150.7,162.6,115,285.5-178.4,586.8c-233.9,241.9-277.5,273.6-412.3,273.6C3053.7,774.7,3002.2,750.9,2938.7,671.6z"/><path d="M2185.4-81.7c-158.6-202.2-103.1-301.3,483.7-876.2c495.6-487.6,570.9-523.3,765.2-356.8c75.3,67.4,107,130.9,107,222.1c0,111-63.4,194.2-491.6,622.5c-452,452-503.5,491.6-638.3,491.6C2300.4,21.4,2244.9-2.4,2185.4-81.7z"/><path d="M1428.2-839c-130.8-170.5-83.3-305.3,214.1-594.7c210.1-210.1,277.5-249.8,388.5-249.8c166.5,0,309.2,134.8,309.2,297.4c0,87.2-63.4,174.5-269.6,384.6c-233.9,233.9-289.4,269.6-416.3,269.6C1547.1-731.9,1491.6-759.7,1428.2-839z"/></g></g>
</svg>